<svg data-v-1084b650="" xmlns="http://www.w3.org/2000/svg" viewBox="0 0 300 300"><!----> <!----> <rect data-v-1084b650="" fill="#EDED1B" x="0" y="0" width="300px" height="300px" class="logo-background-square"></rect> <!----> <!----> <g data-v-1084b650="" id="3b8375b8-0c65-0d2a-e3c3-8665f9ec99bd" fill="#131619" stroke="none" transform="matrix(0.7999999999999998,0,0,0.7999999999999998,30.11999511718753,31.52926940917972)"><svg xmlns="http://www.w3.org/2000/svg" xmlns:xlink="http://www.w3.org/1999/xlink" version="1.1" x="0px" y="0px" viewBox="0 0 100 100" style="enable-background:new 0 0 100 100;" xml:space="preserve"><path d="M66.6,61.2c-0.4,0-0.8-0.4-0.8-0.8V39.9c0-6.2-5-11.3-11.3-11.3h-2.6c-1,0-1.9,0.7-2.1,1.7c-0.2,1.3,0.8,2.3,2,2.3h0.9  c-0.5,2.4-2.6,4.2-5.1,4.2S43,35,42.5,32.6h1c1,0,1.9-0.7,2.1-1.7c0.2-1.3-0.8-2.3-2-2.3h-3.8c-6.2,0-11.3,5-11.3,11.3v21.2  c0,1,0.7,1.9,1.7,2.1c1.3,0.2,2.3-0.8,2.3-2V39.9c0-3.5,2.5-6.4,5.8-7.1c0.1,0,0.2,0,0.2,0.1c0.6,3.7,3.3,6.6,6.8,7.6  c0.2,0,0.3,0.2,0.3,0.4v4.7c-2.6,0.9-4.3,3.7-3.7,6.7c0.4,2.2,2.2,4,4.4,4.5c3.7,0.8,7.1-2.1,7.1-5.7c0-2.5-1.6-4.6-3.8-5.4v-4.7  c0-0.2,0.1-0.4,0.3-0.4c3.5-0.9,6.1-3.8,6.8-7.3c0-0.1,0.1-0.2,0.2-0.1c2.8,1,4.9,3.7,4.9,6.9v20.5c0,2.6,2.1,4.8,4.8,4.8  c0.4,0,0.8,0.4,0.8,0.8v11.2c0,0.4-0.3,0.8-0.8,0.8H64c0,0,0,0,0,0H49.7c-0.3,0-0.5-0.2-0.5-0.5V65.8c0-0.3,0.2-0.5,0.5-0.5h5.5  c1,0,1.9-0.7,2.1-1.7c0.2-1.3-0.8-2.3-2-2.3h-5.6c-2.5,0-4.5,2-4.5,4.5v11.6c0,2.5,2,4.5,4.5,4.5H53c0.1,0,0.3,0.1,0.3,0.3v9  c0,1,0.7,1.9,1.7,2.1c1.3,0.2,2.3-0.8,2.3-2v-9.1c0-0.1,0.1-0.3,0.3-0.3H67c0.2,0,0.4,0,0.6-0.1c2.2-0.4,3.8-2.4,3.8-4.7V66  C71.4,63.3,69.3,61.2,66.6,61.2z M47.6,52.8c-1,0-1.8-0.8-1.8-1.8c0-1,0.8-1.8,1.8-1.8c1,0,1.8,0.8,1.8,1.8  C49.5,52,48.6,52.8,47.6,52.8z"></path><path d="M39.1,69.6c-1.1,0-2,0.9-2,2v19.7c0,1.1,0.9,2,2,2s2-0.9,2-2V71.6C41.1,70.5,40.2,69.6,39.1,69.6z"></path><path d="M47.6,26C53.3,26,58,21.4,58,15.7S53.3,5.4,47.6,5.4C42,5.4,37.3,10,37.3,15.7S42,26,47.6,26z M47.6,9.4  c3.5,0,6.3,2.8,6.3,6.3S51.1,22,47.6,22s-6.3-2.8-6.3-6.3S44.2,9.4,47.6,9.4z"></path></svg></g></svg>