<svg data-v-1084b650="" xmlns="http://www.w3.org/2000/svg" viewBox="0 0 300 300"><!----> <!----> <rect data-v-1084b650="" fill="#EDED1B" x="0" y="0" width="300px" height="300px" class="logo-background-square"></rect> <!----> <g data-v-1084b650="" id="8bdf5fe2-37e1-deaf-809f-377d412baac0" fill="#131619" transform="matrix(3.0999999999999996,0,0,3.0999999999999996,71.79381949603558,123.5414966583252)"><path d="M7.36 9.67C7.36 7.57 6.20 5.95 4.05 5.95C1.90 5.95 0.41 7.53 0.41 9.88C0.41 12.52 1.90 13.78 3.89 13.78C5.52 13.78 6.93 12.94 7.25 11.17L5.70 11.17C5.54 12.11 4.84 12.66 3.95 12.66C2.94 12.66 2.13 12.07 2.00 10.29L7.34 10.29C7.36 10.02 7.36 9.81 7.36 9.67ZM3.99 7.07C5.07 7.07 5.67 7.84 5.78 9.21L2.02 9.21C2.18 7.78 2.94 7.07 3.99 7.07ZM15.40 8.08C15.26 6.78 14.35 5.95 12.75 5.95C12.01 5.95 11.47 6.08 10.88 6.52L10.37 7.38L10.37 6.15L8.83 6.15L8.83 13.58L10.37 13.58L10.37 10.25C10.37 7.92 11.24 7.08 12.31 7.08C13.36 7.08 13.80 7.67 13.87 8.51C13.90 8.89 13.90 9.21 13.90 9.56L13.90 13.58L15.44 13.58L15.44 9.39C15.44 8.79 15.43 8.46 15.40 8.08ZM23.84 6.15L22.20 6.15L20.15 12.45L18.06 6.15L16.37 6.15L19.21 13.58L21 13.58ZM31.50 3.29L29.96 3.29L29.96 7.15L29.47 6.41C29.09 6.12 28.32 5.95 27.71 5.95C25.79 5.95 24.11 7.27 24.11 9.98C24.11 12.17 25.33 13.78 27.45 13.78C28.21 13.78 28.98 13.55 29.40 13.22L29.96 12.40L29.96 13.58L31.50 13.58ZM27.80 12.66C26.47 12.66 25.73 11.47 25.73 9.86C25.73 8.01 26.66 7.07 27.87 7.07C28.87 7.07 29.96 7.74 29.96 9.55L29.96 9.94C29.96 11.93 28.97 12.66 27.80 12.66ZM36.68 5.95C34.17 5.95 32.91 7.69 32.91 9.86C32.91 12.03 34.17 13.78 36.68 13.78C39.17 13.78 40.45 12.03 40.45 9.86C40.45 7.69 39.17 5.95 36.68 5.95ZM36.68 12.66C35.32 12.66 34.54 11.54 34.54 9.86C34.54 8.18 35.32 7.07 36.68 7.07C38.02 7.07 38.81 8.18 38.81 9.86C38.81 11.54 38.02 12.66 36.68 12.66ZM44.84 5.95C42.90 5.95 41.24 7.36 41.24 9.90C41.24 12.54 42.71 13.78 44.66 13.78C46.41 13.78 47.70 12.89 48.05 11.12L46.48 11.12C46.26 12.12 45.63 12.66 44.74 12.66C43.71 12.66 42.87 11.80 42.87 9.79C42.87 7.92 43.72 7.07 44.80 7.07C45.71 7.07 46.31 7.59 46.54 8.72L48.09 8.72C47.91 7.08 46.72 5.95 44.84 5.95ZM51.25 7.28L52.71 7.28L52.71 6.20L51.25 6.20L51.25 4.42L49.73 4.42L49.73 6.20L48.68 6.20L48.68 7.28L49.73 7.28L49.73 11.31C49.73 11.73 49.73 12.05 49.74 12.31C49.81 13.29 50.32 13.72 51.48 13.72C51.86 13.72 52.22 13.69 52.61 13.64L52.61 12.57C51.60 12.67 51.32 12.52 51.27 11.79C51.25 11.59 51.25 11.42 51.25 11.17ZM57.15 5.95C54.64 5.95 53.38 7.69 53.38 9.86C53.38 12.03 54.64 13.78 57.15 13.78C59.64 13.78 60.91 12.03 60.91 9.86C60.91 7.69 59.64 5.95 57.15 5.95ZM57.15 12.66C55.79 12.66 55.01 11.54 55.01 9.86C55.01 8.18 55.79 7.07 57.15 7.07C58.49 7.07 59.28 8.18 59.28 9.86C59.28 11.54 58.49 12.66 57.15 12.66ZM65.59 5.96C65.21 5.96 64.78 6.12 64.44 6.38L63.81 7.41L63.81 6.15L62.27 6.15L62.27 13.58L63.81 13.58L63.81 9.72C63.81 7.88 64.69 7.15 66.11 7.25L66.11 6.05C65.95 5.99 65.80 5.96 65.59 5.96Z"></path></g> <!----> <g data-v-1084b650="" id="36769ae9-2e0c-052d-a3ba-1456f1d4a215" stroke="none" fill="#131619" transform="matrix(0.18492336824786984,0,0,0.18492336824786984,24.039056663299817,122.61499182544945)"><svg xmlns="http://www.w3.org/2000/svg" xmlns:xlink="http://www.w3.org/1999/xlink" version="1.1" x="0px" y="0px" viewBox="0 0 100 100" style="enable-background:new 0 0 100 100;" xml:space="preserve"><path d="M66.6,61.2c-0.4,0-0.8-0.4-0.8-0.8V39.9c0-6.2-5-11.3-11.3-11.3h-2.6c-1,0-1.9,0.7-2.1,1.7c-0.2,1.3,0.8,2.3,2,2.3h0.9  c-0.5,2.4-2.6,4.2-5.1,4.2S43,35,42.5,32.6h1c1,0,1.9-0.7,2.1-1.7c0.2-1.3-0.8-2.3-2-2.3h-3.8c-6.2,0-11.3,5-11.3,11.3v21.2  c0,1,0.7,1.9,1.7,2.1c1.3,0.2,2.3-0.8,2.3-2V39.9c0-3.5,2.5-6.4,5.8-7.1c0.1,0,0.2,0,0.2,0.1c0.6,3.7,3.3,6.6,6.8,7.6  c0.2,0,0.3,0.2,0.3,0.4v4.7c-2.6,0.9-4.3,3.7-3.7,6.7c0.4,2.2,2.2,4,4.4,4.5c3.7,0.8,7.1-2.1,7.1-5.7c0-2.5-1.6-4.6-3.8-5.4v-4.7  c0-0.2,0.1-0.4,0.3-0.4c3.5-0.9,6.1-3.8,6.8-7.3c0-0.1,0.1-0.2,0.2-0.1c2.8,1,4.9,3.7,4.9,6.9v20.5c0,2.6,2.1,4.8,4.8,4.8  c0.4,0,0.8,0.4,0.8,0.8v11.2c0,0.4-0.3,0.8-0.8,0.8H64c0,0,0,0,0,0H49.7c-0.3,0-0.5-0.2-0.5-0.5V65.8c0-0.3,0.2-0.5,0.5-0.5h5.5  c1,0,1.9-0.7,2.1-1.7c0.2-1.3-0.8-2.3-2-2.3h-5.6c-2.5,0-4.5,2-4.5,4.5v11.6c0,2.5,2,4.5,4.5,4.5H53c0.1,0,0.3,0.1,0.3,0.3v9  c0,1,0.7,1.9,1.7,2.1c1.3,0.2,2.3-0.8,2.3-2v-9.1c0-0.1,0.1-0.3,0.3-0.3H67c0.2,0,0.4,0,0.6-0.1c2.2-0.4,3.8-2.4,3.8-4.7V66  C71.4,63.3,69.3,61.2,66.6,61.2z M47.6,52.8c-1,0-1.8-0.8-1.8-1.8c0-1,0.8-1.8,1.8-1.8c1,0,1.8,0.8,1.8,1.8  C49.5,52,48.6,52.8,47.6,52.8z"></path><path d="M39.1,69.6c-1.1,0-2,0.9-2,2v19.7c0,1.1,0.9,2,2,2s2-0.9,2-2V71.6C41.1,70.5,40.2,69.6,39.1,69.6z"></path><path d="M47.6,26C53.3,26,58,21.4,58,15.7S53.3,5.4,47.6,5.4C42,5.4,37.3,10,37.3,15.7S42,26,47.6,26z M47.6,9.4  c3.5,0,6.3,2.8,6.3,6.3S51.1,22,47.6,22s-6.3-2.8-6.3-6.3S44.2,9.4,47.6,9.4z"></path></svg></g></svg>