<svg xmlns="http://www.w3.org/2000/svg" viewBox="0 0 300 300"><path fill="#EDED1B" class="logo-background-square" d="M0 0h300v300H0z"/><svg xmlns="http://www.w3.org/2000/svg" xmlns:xlink="http://www.w3.org/1999/xlink" viewBox="0 0 100 100" fill="#131619" transform="matrix(.8 0 0 .8 30.12 31.53)"><path d="M66.6 61.2c-.4 0-.8-.4-.8-.8V39.9c0-6.2-5-11.3-11.3-11.3h-2.6c-1 0-1.9.7-2.1 1.7-.2 1.3.8 2.3 2 2.3h.9c-.5 2.4-2.6 4.2-5.1 4.2S43 35 42.5 32.6h1c1 0 1.9-.7 2.1-1.7.2-1.3-.8-2.3-2-2.3h-3.8c-6.2 0-11.3 5-11.3 11.3v21.2c0 1 .7 1.9 1.7 2.1 1.3.2 2.3-.8 2.3-2V39.9c0-3.5 2.5-6.4 5.8-7.1.1 0 .2 0 .2.1.6 3.7 3.3 6.6 6.8 7.6.2 0 .3.2.3.4v4.7c-2.6.9-4.3 3.7-3.7 6.7.4 2.2 2.2 4 4.4 4.5 3.7.8 7.1-2.1 7.1-5.7 0-2.5-1.6-4.6-3.8-5.4V41c0-.2.1-.4.3-.4 3.5-.9 6.1-3.8 6.8-7.3 0-.1.1-.2.2-.1 2.8 1 4.9 3.7 4.9 6.9v20.5c0 2.6 2.1 4.8 4.8 4.8.4 0 .8.4.8.8v11.2c0 .4-.3.8-.8.8H49.7c-.3 0-.5-.2-.5-.5V65.8c0-.3.2-.5.5-.5h5.5c1 0 1.9-.7 2.1-1.7.2-1.3-.8-2.3-2-2.3h-5.6c-2.5 0-4.5 2-4.5 4.5v11.6c0 2.5 2 4.5 4.5 4.5H53c.1 0 .3.1.3.3v9c0 1 .7 1.9 1.7 2.1 1.3.2 2.3-.8 2.3-2v-9.1c0-.1.1-.3.3-.3H67c.2 0 .4 0 .6-.1 2.2-.4 3.8-2.4 3.8-4.7V66c0-2.7-2.1-4.8-4.8-4.8zm-19-8.4c-1 0-1.8-.8-1.8-1.8s.8-1.8 1.8-1.8 1.8.8 1.8 1.8c.1 1-.8 1.8-1.8 1.8z"/><path d="M39.1 69.6c-1.1 0-2 .9-2 2v19.7c0 1.1.9 2 2 2s2-.9 2-2V71.6c0-1.1-.9-2-2-2zM47.6 26C53.3 26 58 21.4 58 15.7S53.3 5.4 47.6 5.4C42 5.4 37.3 10 37.3 15.7S42 26 47.6 26zm0-16.6c3.5 0 6.3 2.8 6.3 6.3S51.1 22 47.6 22s-6.3-2.8-6.3-6.3 2.9-6.3 6.3-6.3z"/></svg></svg>